<svg xmlns="http://www.w3.org/2000/svg" width="13" height="9.97" viewBox="0 0 13 9.97">
  <defs>
    <style>
      .cls-1 {
        fill-rule: evenodd;
      }
    </style>
  </defs>
  <path id="Forma_1_copy_7" data-name="Forma 1 copy 7" class="cls-1" d="M421.15,1674.5a0.483,0.483,0,0,1,0-.7l0.7-.7a0.483,0.483,0,0,1,.7,0l0.05,0.05,2.748,2.95a0.242,0.242,0,0,0,.35,0l6.7-6.94h0.05a0.483,0.483,0,0,1,.7,0l0.7,0.7a0.485,0.485,0,0,1,0,.7h0l-8,8.29a0.482,0.482,0,0,1-.7,0l-3.9-4.2Z" transform="translate(-421 -1669.03)"/>
</svg>
